<svg width="27" height="25" viewBox="0 0 27 25" fill="none" xmlns="http://www.w3.org/2000/svg">
<path d="M11 4.8125C10.6219 4.8125 10.3125 4.50313 10.3125 4.125V3.4375C10.3125 1.53828 11.8508 0 13.75 0H14.4375C14.8156 0 15.125 0.309375 15.125 0.6875V1.375C15.125 3.27422 13.5867 4.8125 11.6875 4.8125H11ZM1.375 12.375C1.375 9.09648 2.90898 5.5 6.1875 5.5C7.36055 5.5 8.75273 5.94258 9.74102 6.3293C10.5488 6.64297 11.4555 6.64297 12.2633 6.3293C13.2473 5.94688 14.6438 5.5 15.8168 5.5C19.0953 5.5 20.6293 9.09648 20.6293 12.375C20.6293 17.875 17.1918 22 13.7543 22C13.0453 22 12.1172 21.7164 11.5414 21.5145C11.1934 21.3941 10.8152 21.3941 10.4672 21.5145C9.89141 21.7164 8.96328 22 8.2543 22C4.8125 22 1.375 17.875 1.375 12.375Z" fill="#E33B3B"/>
<path d="M19.9688 13.002C17.666 13.002 15.7178 14.6111 15.0557 16.8295C16.04 16.2983 17.1504 16.0015 18.3281 16.0015H20.9062C21.1641 16.0015 21.375 16.2265 21.375 16.5014C21.375 16.7764 21.1641 17.0013 20.9062 17.0013H20.4375H18.3281C17.8418 17.0013 17.3701 17.0607 16.916 17.1701C16.1572 17.3544 15.4512 17.6825 14.8242 18.1293C13.1221 19.3385 12 21.4037 12 23.7502V24.2501C12 24.6657 12.3135 25 12.7031 25C13.0928 25 13.4062 24.6657 13.4062 24.2501V23.7502C13.4062 22.2286 14.0127 20.8601 14.9824 19.9009C15.5625 22.2598 17.5752 24.0002 19.9688 24.0002H19.998C23.8682 23.9783 27 19.9102 27 14.8954C27 13.5644 26.7803 12.299 26.3818 11.1586C26.3057 10.943 26.0098 10.9524 25.9072 11.1555C25.3564 12.2553 24.2666 13.002 23.0156 13.002H19.9688Z" fill="#5CC05C"/>
</svg>
